# xmcd
#
# Track frame offsets: 
#        150
#        10462
#        22050
#        32645
#        46550
#        59257
#        73442
#        84532
#        94990
#        108085
#        121885
#        134135
#        147717
#        160447
#        176397
#        189042
#        203320
#        213697
#
# Disc length: 3048 seconds
#
# Revision: 2
# Processed by: cddbd v1.5.1PL2 Copyright (c) Steve Scherf et al.
# Submitted via: ExactAudioCopy v0.95a5
#
DISCID=030be612
DTITLE=Ray Charles - Only Original Hits Vol. 2
DYEAR=1900
DGENRE=Blues
TTITLE0=01. Sittin'on the top of the world
TTITLE1=02. See see rider
TTITLE2=03. Th'ego song
TTITLE3=04. Late in the evening blues
TTITLE4=05. Lonely boy
TTITLE5=06. Someday
TTITLE6=07. I'll di anything but work
TTITLE7=08. I wonder who's kissing her now
TTITLE8=09. Baby won't you please come home
TTITLE9=10. Misery in my heart
TTITLE10=11. I'm glad for your sake
TTITLE11=12. Baby let me home your hand
TTITLE12=13. The snow is falling
TTITLE13=14. Let me hear you call me name
TTITLE14=15. Why did you go?
TTITLE15=16. Kissa me baby
TTITLE16=17. Hey now
TTITLE17=18. I'm wondering and wondering
EXTD=
EXTT0=
EXTT1=
EXTT2=
EXTT3=
EXTT4=
EXTT5=
EXTT6=
EXTT7=
EXTT8=
EXTT9=
EXTT10=
EXTT11=
EXTT12=
EXTT13=
EXTT14=
EXTT15=
EXTT16=
EXTT17=
PLAYORDER=
